<?xml version="1.0" encoding="UTF-8" standalone="no"?>
<!-- Created with Inkscape (http://www.inkscape.org/) -->

<svg
   version="1.1"
   id="svg1"
   width="304.94"
   height="56.470402"
   viewBox="0 0 304.94 56.470402"
   xmlns="http://www.w3.org/2000/svg"
   xmlns:svg="http://www.w3.org/2000/svg">
  <defs
     id="defs1">
    <clipPath
       clipPathUnits="userSpaceOnUse"
       id="clipPath3">
      <path
         d="M 0,42.353 H 228.705 V 0 H 0 Z"
         id="path3" />
    </clipPath>
    <clipPath
       clipPathUnits="userSpaceOnUse"
       id="clipPath5">
      <path
         d="M 0,42.353 H 228.705 V 0 H 0 Z"
         transform="translate(-40.921401,-7.7307999)"
         id="path5" />
    </clipPath>
    <clipPath
       clipPathUnits="userSpaceOnUse"
       id="clipPath7">
      <path
         d="M 0,42.353 H 228.705 V 0 H 0 Z"
         transform="translate(-50.694202,-5.8209999)"
         id="path7" />
    </clipPath>
    <clipPath
       clipPathUnits="userSpaceOnUse"
       id="clipPath9">
      <path
         d="M 0,42.353 H 228.705 V 0 H 0 Z"
         transform="translate(-56.492902,-7.7736999)"
         id="path9" />
    </clipPath>
    <clipPath
       clipPathUnits="userSpaceOnUse"
       id="clipPath11">
      <path
         d="M 0,42.353 H 228.705 V 0 H 0 Z"
         transform="translate(-63.873101,-8.5722002)"
         id="path11" />
    </clipPath>
    <clipPath
       clipPathUnits="userSpaceOnUse"
       id="clipPath13">
      <path
         d="M 0,42.353 H 228.705 V 0 H 0 Z"
         id="path13" />
    </clipPath>
    <clipPath
       clipPathUnits="userSpaceOnUse"
       id="clipPath15">
      <path
         d="M 0,42.353 H 228.705 V 0 H 0 Z"
         id="path15" />
    </clipPath>
    <clipPath
       clipPathUnits="userSpaceOnUse"
       id="clipPath17">
      <path
         d="M 0,42.353 H 228.705 V 0 H 0 Z"
         id="path17" />
    </clipPath>
    <clipPath
       clipPathUnits="userSpaceOnUse"
       id="clipPath19">
      <path
         d="M 0,42.353 H 228.705 V 0 H 0 Z"
         transform="translate(-90.115105,-8.9841002)"
         id="path19" />
    </clipPath>
    <clipPath
       clipPathUnits="userSpaceOnUse"
       id="clipPath21">
      <path
         d="M 0,42.353 H 228.705 V 0 H 0 Z"
         id="path21" />
    </clipPath>
    <clipPath
       clipPathUnits="userSpaceOnUse"
       id="clipPath23">
      <path
         d="M 0,42.353 H 228.705 V 0 H 0 Z"
         id="path23" />
    </clipPath>
    <clipPath
       clipPathUnits="userSpaceOnUse"
       id="clipPath25">
      <path
         d="M 0,42.353 H 228.705 V 0 H 0 Z"
         id="path25" />
    </clipPath>
    <clipPath
       clipPathUnits="userSpaceOnUse"
       id="clipPath27">
      <path
         d="M 0,42.353 H 228.705 V 0 H 0 Z"
         transform="translate(-132.32721,-10.537401)"
         id="path27" />
    </clipPath>
    <clipPath
       clipPathUnits="userSpaceOnUse"
       id="clipPath29">
      <path
         d="M 0,42.353 H 228.705 V 0 H 0 Z"
         id="path29" />
    </clipPath>
    <clipPath
       clipPathUnits="userSpaceOnUse"
       id="clipPath31">
      <path
         d="M 0,42.353 H 228.705 V 0 H 0 Z"
         transform="translate(-151.8024,-8.1576002)"
         id="path31" />
    </clipPath>
    <clipPath
       clipPathUnits="userSpaceOnUse"
       id="clipPath33">
      <path
         d="M 0,42.353 H 228.705 V 0 H 0 Z"
         transform="translate(-163.58361,-10.878)"
         id="path33" />
    </clipPath>
    <clipPath
       clipPathUnits="userSpaceOnUse"
       id="clipPath35">
      <path
         d="M 0,42.353 H 228.705 V 0 H 0 Z"
         transform="translate(-176.17761,-5.8209999)"
         id="path35" />
    </clipPath>
    <clipPath
       clipPathUnits="userSpaceOnUse"
       id="clipPath37">
      <path
         d="M 0,42.353 H 228.705 V 0 H 0 Z"
         id="path37" />
    </clipPath>
    <clipPath
       clipPathUnits="userSpaceOnUse"
       id="clipPath39">
      <path
         d="M 0,42.353 H 228.705 V 0 H 0 Z"
         id="path39" />
    </clipPath>
    <clipPath
       clipPathUnits="userSpaceOnUse"
       id="clipPath41">
      <path
         d="M 0,42.353 H 228.705 V 0 H 0 Z"
         id="path41" />
    </clipPath>
    <clipPath
       clipPathUnits="userSpaceOnUse"
       id="clipPath43">
      <path
         d="M 0,42.353 H 228.705 V 0 H 0 Z"
         transform="translate(-219.47361,-7.7736999)"
         id="path43" />
    </clipPath>
    <clipPath
       clipPathUnits="userSpaceOnUse"
       id="clipPath45">
      <path
         d="M 0,42.353 H 228.705 V 0 H 0 Z"
         transform="translate(-23.090001,-31.068701)"
         id="path45" />
    </clipPath>
    <clipPath
       clipPathUnits="userSpaceOnUse"
       id="clipPath47">
      <path
         d="M 0,42.353 H 228.705 V 0 H 0 Z"
         id="path47" />
    </clipPath>
    <clipPath
       clipPathUnits="userSpaceOnUse"
       id="clipPath49">
      <path
         d="M 0,42.353 H 228.705 V 0 H 0 Z"
         transform="translate(-46.566301,-30.615101)"
         id="path49" />
    </clipPath>
    <clipPath
       clipPathUnits="userSpaceOnUse"
       id="clipPath51">
      <path
         d="M 0,42.353 H 228.705 V 0 H 0 Z"
         transform="translate(-52.936301,-32.006401)"
         id="path51" />
    </clipPath>
    <clipPath
       clipPathUnits="userSpaceOnUse"
       id="clipPath53">
      <path
         d="M 0,42.353 H 228.705 V 0 H 0 Z"
         transform="translate(-69.352601,-32.134101)"
         id="path53" />
    </clipPath>
    <clipPath
       clipPathUnits="userSpaceOnUse"
       id="clipPath55">
      <path
         d="M 0,42.353 H 228.705 V 0 H 0 Z"
         transform="translate(-80.439505,-30.615101)"
         id="path55" />
    </clipPath>
    <clipPath
       clipPathUnits="userSpaceOnUse"
       id="clipPath57">
      <path
         d="M 0,42.353 H 228.705 V 0 H 0 Z"
         transform="translate(-91.691005,-31.977801)"
         id="path57" />
    </clipPath>
    <clipPath
       clipPathUnits="userSpaceOnUse"
       id="clipPath59">
      <path
         d="M 0,42.353 H 228.705 V 0 H 0 Z"
         transform="translate(-104.1586,-31.917801)"
         id="path59" />
    </clipPath>
    <clipPath
       clipPathUnits="userSpaceOnUse"
       id="clipPath61">
      <path
         d="M 0,42.353 H 228.705 V 0 H 0 Z"
         transform="translate(-125.811,-24.793501)"
         id="path61" />
    </clipPath>
    <clipPath
       clipPathUnits="userSpaceOnUse"
       id="clipPath63">
      <path
         d="M 0,42.353 H 228.705 V 0 H 0 Z"
         transform="translate(-132.70341,-31.917801)"
         id="path63" />
    </clipPath>
    <clipPath
       clipPathUnits="userSpaceOnUse"
       id="clipPath65">
      <path
         d="M 0,42.353 H 228.705 V 0 H 0 Z"
         transform="translate(-145.0434,-37.324201)"
         id="path65" />
    </clipPath>
    <clipPath
       clipPathUnits="userSpaceOnUse"
       id="clipPath67">
      <path
         d="M 0,42.353 H 228.705 V 0 H 0 Z"
         transform="translate(-156.74211,-34.523301)"
         id="path67" />
    </clipPath>
    <clipPath
       clipPathUnits="userSpaceOnUse"
       id="clipPath69">
      <path
         d="M 0,42.353 H 228.705 V 0 H 0 Z"
         transform="translate(-170.71,-30.615101)"
         id="path69" />
    </clipPath>
    <clipPath
       clipPathUnits="userSpaceOnUse"
       id="clipPath71">
      <path
         d="M 0,42.353 H 228.705 V 0 H 0 Z"
         transform="translate(-181.3833,-24.793501)"
         id="path71" />
    </clipPath>
    <clipPath
       clipPathUnits="userSpaceOnUse"
       id="clipPath73">
      <path
         d="M 0,42.353 H 228.705 V 0 H 0 Z"
         transform="translate(-194.8641,-31.917801)"
         id="path73" />
    </clipPath>
    <clipPath
       clipPathUnits="userSpaceOnUse"
       id="clipPath75">
      <path
         d="M 0,42.353 H 228.705 V 0 H 0 Z"
         transform="translate(-213.28371,-34.542501)"
         id="path75" />
    </clipPath>
    <clipPath
       clipPathUnits="userSpaceOnUse"
       id="clipPath77">
      <path
         d="M 0,42.353 H 228.705 V 0 H 0 Z"
         transform="translate(-222.08041,-30.615101)"
         id="path77" />
    </clipPath>
  </defs>
  <g
     id="g1">
    <g
       id="layer-MC0">
      <path
         id="path2"
         d="M 27.415,13.43 H 25.72 v 1.568 h 1.695 z M 26.618,9.326 c 0,1.24 -0.4,1.867 -1.197,1.867 -0.797,0 -1.24,-0.855 -1.24,-1.796 0,-1.082 0.755,-1.666 2.109,-1.666 h 0.328 z m -1.795,4.104 h -1.682 v 1.568 h 1.682 z M 30.422,5.821 H 27.985 C 27.202,4.338 25.635,3.458 23.626,3.458 20.89,3.458 18.64,5.406 18.64,8.129 v 2.721 h 1.923 V 8.3 c 0,-1.88 1.096,-3.05 3.021,-3.05 0.883,0 1.58,0.188 2.108,0.556 -2.066,0.03 -3.478,1.497 -3.478,3.564 0,1.908 1.241,3.362 3.092,3.362 1.966,0 3.206,-1.169 3.206,-3.063 V 7.731 h 1.91 z"
         style="fill:#231f20;fill-opacity:1;fill-rule:nonzero;stroke:none"
         transform="matrix(1.3333333,0,0,-1.3333333,0,56.4704)"
         clip-path="url(#clipPath3)" />
      <path
         id="path4"
         d="m 0,0 0.015,0.255 c 0,1.469 -0.728,2.58 -1.981,2.58 C -3.433,2.835 -4.745,1.879 -5.841,0 Z M 3.633,-1.91 H -11.112 V 0 h 1.793 c 0.657,0 1.013,0.341 1.013,1.367 v 2.492 h 1.995 V 2.023 C -5.057,3.62 -3.406,4.572 -1.809,4.572 0.526,4.572 1.895,2.919 2.08,0 h 1.553 z"
         style="fill:#231f20;fill-opacity:1;fill-rule:nonzero;stroke:none"
         transform="matrix(1.3333333,0,0,-1.3333333,54.561867,46.162667)"
         clip-path="url(#clipPath5)" />
      <path
         id="path6"
         d="m 0,0 h -6.469 v 1.91 h 1.354 c 0.669,0 1.01,0.454 1.01,1.365 v 5.902 h 2.011 V 3.348 C -2.094,2.822 -2.18,2.352 -2.337,1.91 H 0 Z"
         style="fill:#231f20;fill-opacity:1;fill-rule:nonzero;stroke:none"
         transform="matrix(1.3333333,0,0,-1.3333333,67.592267,48.709067)"
         clip-path="url(#clipPath7)" />
      <path
         id="path8"
         d="M 0,0 C 0,1.124 -0.427,1.695 -1.268,1.695 H -1.41 c -0.728,0 -1.212,-0.684 -1.212,-1.609 0,-0.956 0.484,-1.64 1.325,-1.64 C -0.485,-1.554 0,-0.954 0,0 M 3.647,-1.952 H 1.369 c -0.586,-0.814 -1.482,-1.226 -2.666,-1.226 -1.21,0 -2.109,0.412 -2.707,1.226 h -2.179 v 1.909 h 1.595 c 0,2.05 1.169,3.333 3.234,3.333 2.081,0 3.335,-1.238 3.335,-3.333 h 1.666 z"
         style="fill:#231f20;fill-opacity:1;fill-rule:nonzero;stroke:none"
         transform="matrix(1.3333333,0,0,-1.3333333,75.323867,46.105467)"
         clip-path="url(#clipPath9)" />
      <path
         id="path10"
         d="m 0,0 c 0,-0.755 -0.214,-1.382 -0.628,-1.881 -0.469,-0.585 -1.124,-0.87 -1.965,-0.87 h -1.879 v 1.91 h 1.465 c 0.671,0 1.011,0.468 1.011,1.395 V 6.426 H 0 Z"
         style="fill:#231f20;fill-opacity:1;fill-rule:nonzero;stroke:none"
         transform="matrix(1.3333333,0,0,-1.3333333,85.164133,45.0408)"
         clip-path="url(#clipPath11)" />
      <path
         id="path12"
         d="m 67.321,5.821 h -1.996 v 9.189 h 1.996 z"
         style="fill:#231f20;fill-opacity:1;fill-rule:nonzero;stroke:none"
         transform="matrix(1.3333333,0,0,-1.3333333,0,56.4704)"
         clip-path="url(#clipPath13)" />
      <path
         id="path14"
         d="m 73.889,5.821 h -1.996 v 9.189 h 1.996 z"
         style="fill:#231f20;fill-opacity:1;fill-rule:nonzero;stroke:none"
         transform="matrix(1.3333333,0,0,-1.3333333,0,56.4704)"
         clip-path="url(#clipPath15)" />
      <path
         id="path16"
         d="m 79.644,13.357 h -1.782 v 1.64 h 1.782 z M 84.66,5.821 h -9.233 v 1.91 h 5.171 c 0,1.995 -1.082,2.877 -3.618,2.877 v 1.667 c 1.254,0 2.137,-0.086 2.664,-0.272 1.966,-0.697 2.949,-2.108 2.949,-4.259 h 2.067 z"
         style="fill:#231f20;fill-opacity:1;fill-rule:nonzero;stroke:none"
         transform="matrix(1.3333333,0,0,-1.3333333,0,56.4704)"
         clip-path="url(#clipPath17)" />
      <path
         id="path18"
         d="m 0,0 c 0,0.699 -0.414,1.212 -1.111,1.212 -0.697,0 -1.098,-0.513 -1.098,-1.212 0,-0.698 0.456,-1.268 1.098,-1.268 C -0.469,-1.268 0,-0.713 0,0 M 6.239,-3.163 H -5.913 v 1.91 h 2.051 c -0.184,0.383 -0.27,0.798 -0.27,1.239 0,1.724 1.24,2.836 3.021,2.836 1.753,0 3.02,-1.07 3.02,-2.836 0,-0.441 -0.085,-0.856 -0.27,-1.239 H 3.02 l 0.029,0.726 C 3.02,1.611 1.894,3.291 -0.285,3.519 l 0.183,1.924 C 1.396,5.302 3.076,4.33 3.946,3.077 4.645,2.093 4.959,0.897 4.986,-0.513 l -0.027,-0.74 h 1.28 z"
         style="fill:#231f20;fill-opacity:1;fill-rule:nonzero;stroke:none"
         transform="matrix(1.3333333,0,0,-1.3333333,120.15347,44.4916)"
         clip-path="url(#clipPath19)" />
      <path
         id="path20"
         d="m 100.202,3.458 h -1.768 v 1.653 h 1.768 z m 0.113,5.113 C 100.315,7.817 100.101,7.19 99.688,6.69 99.217,6.106 98.562,5.821 97.737,5.821 h -1.696 v 1.91 h 1.269 c 0.668,0 1.009,0.469 1.009,1.395 v 3.149 h 1.996 z"
         style="fill:#231f20;fill-opacity:1;fill-rule:nonzero;stroke:none"
         transform="matrix(1.3333333,0,0,-1.3333333,0,56.4704)"
         clip-path="url(#clipPath21)" />
      <path
         id="path22"
         d="m 112.667,12.29 h -1.781 v 1.639 h 1.781 z m -1.352,2.265 h -1.781 v 1.653 h 1.781 z m -1.339,-2.265 h -1.783 v 1.639 h 1.783 z m 8.576,-6.469 h -9.687 c -3.151,0 -4.717,1.325 -4.717,3.99 v 2.479 h 1.967 V 9.811 c 0,-0.841 0.27,-1.426 0.797,-1.724 0.412,-0.244 1.068,-0.356 1.993,-0.356 h 4.545 c 0.671,0 1.012,0.455 1.012,1.367 v 3.177 h 1.996 V 9.171 c 0,-0.528 -0.071,-0.998 -0.228,-1.44 h 2.322 z"
         style="fill:#231f20;fill-opacity:1;fill-rule:nonzero;stroke:none"
         transform="matrix(1.3333333,0,0,-1.3333333,0,56.4704)"
         clip-path="url(#clipPath23)" />
      <path
         id="path24"
         d="m 122.396,3.458 h -1.768 v 1.653 h 1.768 z m 2.295,2.363 h -6.427 v 1.91 h 1.31 c 0.671,0 1.012,0.455 1.012,1.367 v 3.177 h 2.009 V 9.171 c 0,-0.528 -0.084,-0.998 -0.242,-1.44 h 2.338 z"
         style="fill:#231f20;fill-opacity:1;fill-rule:nonzero;stroke:none"
         transform="matrix(1.3333333,0,0,-1.3333333,0,56.4704)"
         clip-path="url(#clipPath25)" />
      <path
         id="path26"
         d="m 0,0 c -0.613,0.313 -1.212,0.469 -1.795,0.469 -0.571,0 -1.14,-0.128 -1.695,-0.399 0.427,-0.183 0.768,-0.384 1.025,-0.568 0.255,-0.186 0.555,-0.471 0.883,-0.856 0.284,0.127 0.6,0.356 0.925,0.656 C -0.356,-0.443 -0.128,-0.216 0,0 M 4.103,-4.716 H 0.427 c -0.825,0 -1.566,0.327 -2.208,0.997 -0.343,-0.285 -0.785,-0.527 -1.341,-0.712 -0.596,-0.185 -1.182,-0.285 -1.766,-0.285 h -3.134 v 1.909 h 3.107 c 0.697,0 1.324,0.157 1.852,0.485 -0.214,0.299 -0.584,0.598 -1.083,0.912 -0.6,0.369 -1.182,0.611 -1.738,0.712 v 1.637 c 1.295,0.771 2.62,1.155 3.947,1.155 1.581,0 3.048,-0.525 4.402,-1.567 C 2.308,0.142 1.952,-0.372 1.425,-0.983 0.841,-1.653 0.299,-2.139 -0.214,-2.451 0.043,-2.694 0.398,-2.807 0.855,-2.807 h 3.248 z"
         style="fill:#231f20;fill-opacity:1;fill-rule:nonzero;stroke:none"
         transform="matrix(1.3333333,0,0,-1.3333333,176.43627,42.420533)"
         clip-path="url(#clipPath27)" />
      <path
         id="path28"
         d="m 140.12,13.357 h -1.781 v 1.64 h 1.781 z m 0.128,-4.786 c 0,-0.754 -0.214,-1.381 -0.627,-1.881 -0.47,-0.584 -1.126,-0.869 -1.951,-0.869 h -1.696 v 1.91 h 1.269 c 0.67,0 1.011,0.469 1.011,1.395 v 3.149 h 1.994 z m -2.821,4.786 h -1.768 v 1.64 h 1.768 z"
         style="fill:#231f20;fill-opacity:1;fill-rule:nonzero;stroke:none"
         transform="matrix(1.3333333,0,0,-1.3333333,0,56.4704)"
         clip-path="url(#clipPath29)" />
      <path
         id="path30"
         d="M 0,0 C 0,-0.697 -0.23,-1.252 -0.699,-1.695 -1.168,-2.122 -1.753,-2.337 -2.45,-2.337 h -4.732 v 1.91 h 2.123 l -1.794,6.311 h 2.106 l 1.769,-6.311 c 0.67,0.014 1.011,0.497 1.011,1.451 V 6.84 H 0 Z"
         style="fill:#231f20;fill-opacity:1;fill-rule:nonzero;stroke:none"
         transform="matrix(1.3333333,0,0,-1.3333333,202.4032,45.5936)"
         clip-path="url(#clipPath31)" />
      <path
         id="path32"
         d="m 0,0 h -3.718 v 1.069 h 0.81 c -0.056,0.2 -0.084,0.385 -0.084,0.542 0,0.956 0.67,1.653 1.567,1.653 0.641,0 1.111,-0.329 1.396,-0.969 L -0.954,1.854 c -0.1,0.285 -0.272,0.428 -0.486,0.428 -0.327,0 -0.485,-0.202 -0.485,-0.616 0,-0.312 0.101,-0.511 0.316,-0.581 H 0 Z m 6.468,-5.057 h -9.702 c -3.149,0 -4.716,1.34 -4.716,4.003 v 2.451 h 1.966 v -2.451 c 0,-1.524 0.727,-2.093 2.791,-2.093 h 3.677 c 1.594,0 1.895,0.328 1.895,1.467 v 5.798 h 1.995 v -5.827 c 0,-0.526 -0.086,-0.998 -0.243,-1.438 h 2.337 z"
         style="fill:#231f20;fill-opacity:1;fill-rule:nonzero;stroke:none"
         transform="matrix(1.3333333,0,0,-1.3333333,218.11147,41.9664)"
         clip-path="url(#clipPath33)" />
      <path
         id="path34"
         d="m 0,0 h -6.469 v 1.91 h 1.354 c 0.669,0 1.011,0.454 1.011,1.365 v 5.902 h 2.01 V 3.348 C -2.094,2.822 -2.18,2.352 -2.337,1.91 H 0 Z"
         style="fill:#231f20;fill-opacity:1;fill-rule:nonzero;stroke:none"
         transform="matrix(1.3333333,0,0,-1.3333333,234.90347,48.709067)"
         clip-path="url(#clipPath35)" />
      <path
         id="path36"
         d="m 185.422,13.357 h -1.782 v 1.64 h 1.782 z m 1.268,-5.626 c 0,1.521 -0.626,2.835 -1.965,2.835 -1.467,0 -2.778,-0.957 -3.875,-2.835 z m 3.636,-1.91 h -14.748 v 1.91 h 1.795 c 0.656,0 1.012,0.341 1.012,1.367 v 2.492 h 1.994 V 9.754 c 1.254,1.597 2.907,2.549 4.503,2.549 2.337,0 3.703,-1.652 3.89,-4.572 h 1.554 z"
         style="fill:#231f20;fill-opacity:1;fill-rule:nonzero;stroke:none"
         transform="matrix(1.3333333,0,0,-1.3333333,0,56.4704)"
         clip-path="url(#clipPath37)" />
      <path
         id="path38"
         d="m 195.909,13.373 h -1.768 v 1.638 h 1.768 z m 0.542,-4.359 c 0,1.124 -0.427,1.68 -1.268,1.68 h -0.142 c -0.4,0 -0.712,-0.173 -0.94,-0.529 -0.186,-0.297 -0.285,-0.669 -0.285,-1.08 0,-0.47 0.099,-0.842 0.314,-1.142 0.241,-0.341 0.582,-0.513 1.024,-0.513 0.414,0 0.74,0.157 0.983,0.485 0.215,0.3 0.314,0.656 0.314,1.099 m 1.979,0.056 c 0,-0.97 -0.297,-1.754 -0.897,-2.353 -0.584,-0.598 -1.381,-0.896 -2.363,-0.896 h -5.216 v 1.91 h 2.136 c -0.156,0.411 -0.226,0.853 -0.226,1.323 0,1.981 1.239,3.236 3.219,3.236 0.998,0 1.809,-0.287 2.424,-0.857 0.611,-0.555 0.923,-1.35 0.923,-2.363"
         style="fill:#231f20;fill-opacity:1;fill-rule:nonzero;stroke:none"
         transform="matrix(1.3333333,0,0,-1.3333333,0,56.4704)"
         clip-path="url(#clipPath39)" />
      <path
         id="path40"
         d="m 207.747,13.357 h -1.766 v 1.64 h 1.766 z m 5.827,-7.536 h -2.92 c -0.783,-1.483 -2.223,-2.363 -3.89,-2.363 -2.507,0 -4.503,2.106 -4.503,4.842 v 3.975 h 2.009 v -3.79 c 0,-1.881 0.956,-3.175 2.509,-3.175 1.538,0 2.492,1.337 2.492,3.175 v 3.79 h 1.994 V 7.731 h 2.309 z"
         style="fill:#231f20;fill-opacity:1;fill-rule:nonzero;stroke:none"
         transform="matrix(1.3333333,0,0,-1.3333333,0,56.4704)"
         clip-path="url(#clipPath41)" />
      <path
         id="path42"
         d="m 0,0 c 0,1.124 -0.427,1.695 -1.268,1.695 h -0.144 c -0.725,0 -1.225,-0.67 -1.225,-1.609 0,-0.969 0.486,-1.64 1.34,-1.64 C -0.513,-1.554 0,-0.927 0,0 m 1.98,0.071 c 0,-1.91 -1.283,-3.249 -3.277,-3.249 -1.21,0 -2.122,0.412 -2.706,1.226 h -2.565 v 1.909 h 1.98 c 0,2.037 1.169,3.333 3.219,3.333 2.053,0 3.349,-1.268 3.349,-3.219"
         style="fill:#231f20;fill-opacity:1;fill-rule:nonzero;stroke:none"
         transform="matrix(1.3333333,0,0,-1.3333333,292.63147,46.105467)"
         clip-path="url(#clipPath43)" />
      <path
         id="path44"
         d="M 0,0 H 4.184 C 4.761,0 5.265,0.135 5.694,0.404 6.12,0.674 6.431,1.016 6.62,1.432 6.811,1.846 6.907,2.288 6.907,2.764 6.907,3.236 6.811,3.681 6.62,4.096 6.431,4.509 6.12,4.851 5.694,5.121 5.265,5.391 4.761,5.525 4.184,5.525 H 0 Z M 0,-2.033 V -6.276 H -2.212 V 7.539 c 0.699,0 1.76,0.004 3.188,0.01 1.428,0.006 2.497,0.01 3.208,0.01 0.709,0 1.361,-0.109 1.954,-0.326 C 6.729,7.016 7.214,6.721 7.598,6.355 7.979,5.987 8.305,5.561 8.574,5.083 8.844,4.602 9.008,4.099 9.067,3.572 9.126,3.046 9.126,2.516 9.067,1.984 9.008,1.45 8.848,0.946 8.584,0.462 8.322,-0.017 7.995,-0.441 7.608,-0.809 7.218,-1.177 6.729,-1.474 6.138,-1.697 5.545,-1.922 4.893,-2.033 4.184,-2.033 Z"
         style="fill:#231f20;fill-opacity:1;fill-rule:nonzero;stroke:none"
         transform="matrix(1.3333333,0,0,-1.3333333,30.786667,15.045467)"
         clip-path="url(#clipPath45)" />
      <path
         id="path46"
         d="M 36.265,24.794 H 34.234 V 38.59 h 2.031 z"
         style="fill:#231f20;fill-opacity:1;fill-rule:nonzero;stroke:none"
         transform="matrix(1.3333333,0,0,-1.3333333,0,56.4704)"
         clip-path="url(#clipPath47)" />
      <path
         id="path48"
         d="M 0,0 C -0.052,0.75 -0.337,1.329 -0.859,1.736 -1.377,2.144 -2.052,2.349 -2.88,2.349 -3.643,2.349 -4.298,2.144 -4.844,1.736 -5.389,1.329 -5.742,0.75 -5.901,0 Z m -5.941,-1.719 c 0.093,-0.734 0.425,-1.327 0.998,-1.774 0.572,-0.447 1.3,-0.672 2.179,-0.672 0.529,0 1.057,0.096 1.591,0.287 0.532,0.19 0.942,0.444 1.232,0.759 L 1.381,-4.4 C 0.895,-4.927 0.274,-5.335 -0.483,-5.625 -1.239,-5.914 -2.012,-6.06 -2.803,-6.06 c -1.591,0 -2.863,0.468 -3.819,1.401 -0.952,0.935 -1.43,2.186 -1.43,3.75 0,1.488 0.475,2.704 1.42,3.651 0.949,0.95 2.178,1.422 3.693,1.422 1.631,0 2.901,-0.5 3.809,-1.499 0.907,-1.001 1.27,-2.462 1.084,-4.384 z"
         style="fill:#231f20;fill-opacity:1;fill-rule:nonzero;stroke:none"
         transform="matrix(1.3333333,0,0,-1.3333333,62.0884,15.650267)"
         clip-path="url(#clipPath49)" />
      <path
         id="path50"
         d="m 0,0 c -0.604,-0.587 -0.907,-1.365 -0.907,-2.339 0,-0.973 0.303,-1.757 0.907,-2.347 0.605,-0.593 1.356,-0.891 2.251,-0.891 0.579,0 1.094,0.121 1.548,0.357 0.454,0.236 0.797,0.545 1.025,0.927 0.231,0.382 0.404,0.799 0.515,1.253 0.112,0.455 0.112,0.911 0,1.372 C 5.228,-1.207 5.055,-0.786 4.824,-0.405 4.596,-0.023 4.253,0.286 3.799,0.524 3.345,0.759 2.83,0.878 2.251,0.878 1.356,0.878 0.605,0.587 0,0 M 5.465,2.516 H 7.439 V -7.213 H 5.506 L 5.408,-5.635 C 5.104,-6.226 4.635,-6.681 3.997,-6.996 3.358,-7.312 2.71,-7.47 2.053,-7.47 c -1.46,-0.015 -2.657,0.434 -3.591,1.341 -0.935,0.909 -1.401,2.172 -1.401,3.79 0,1.58 0.476,2.819 1.428,3.719 0.955,0.904 2.156,1.353 3.603,1.353 0.697,0 1.349,-0.158 1.953,-0.473 C 4.652,1.942 5.104,1.514 5.408,0.976 Z"
         style="fill:#231f20;fill-opacity:1;fill-rule:nonzero;stroke:none"
         transform="matrix(1.3333333,0,0,-1.3333333,70.581733,13.7952)"
         clip-path="url(#clipPath51)" />
      <path
         id="path52"
         d="M 0,0 C -0.659,0.605 -1.513,0.908 -2.567,0.908 -3.198,0.922 -3.7,0.825 -4.076,0.621 -4.451,0.419 -4.639,0.124 -4.639,-0.255 c 0.014,-0.697 0.719,-1.112 2.113,-1.244 0.552,-0.053 1.028,-0.122 1.431,-0.208 0.401,-0.086 0.828,-0.229 1.282,-0.434 C 0.642,-2.345 0.989,-2.649 1.232,-3.06 1.477,-3.467 1.597,-3.966 1.597,-4.556 1.583,-5.48 1.204,-6.223 0.454,-6.789 c -0.752,-0.564 -1.751,-0.848 -3,-0.848 -1.895,0 -3.376,0.599 -4.441,1.797 l 1.065,1.44 c 0.843,-0.935 1.981,-1.413 3.416,-1.44 0.552,0 1.032,0.104 1.441,0.315 0.406,0.211 0.617,0.526 0.631,0.948 0.014,0.421 -0.167,0.729 -0.542,0.927 -0.377,0.197 -0.946,0.336 -1.709,0.414 -2.63,0.248 -3.954,1.225 -3.964,2.92 0,0.987 0.41,1.727 1.232,2.22 0.821,0.495 1.76,0.74 2.811,0.74 1.527,0 2.778,-0.432 3.751,-1.301 z"
         style="fill:#231f20;fill-opacity:1;fill-rule:nonzero;stroke:none"
         transform="matrix(1.3333333,0,0,-1.3333333,92.470133,13.624933)"
         clip-path="url(#clipPath53)" />
      <path
         id="path54"
         d="M 0,0 C -0.052,0.75 -0.338,1.329 -0.86,1.736 -1.378,2.144 -2.053,2.349 -2.881,2.349 -3.644,2.349 -4.299,2.144 -4.844,1.736 -5.39,1.329 -5.743,0.75 -5.901,0 Z m -5.942,-1.719 c 0.093,-0.734 0.426,-1.327 0.998,-1.774 0.572,-0.447 1.3,-0.672 2.18,-0.672 0.529,0 1.057,0.096 1.59,0.287 0.532,0.19 0.943,0.444 1.233,0.759 L 1.381,-4.4 C 0.895,-4.927 0.273,-5.335 -0.483,-5.625 -1.24,-5.914 -2.013,-6.06 -2.803,-6.06 c -1.592,0 -2.864,0.468 -3.819,1.401 -0.953,0.935 -1.43,2.186 -1.43,3.75 0,1.488 0.474,2.704 1.421,3.651 0.948,0.95 2.177,1.422 3.691,1.422 1.632,0 2.901,-0.5 3.81,-1.499 0.906,-1.001 1.269,-2.462 1.084,-4.384 z"
         style="fill:#231f20;fill-opacity:1;fill-rule:nonzero;stroke:none"
         transform="matrix(1.3333333,0,0,-1.3333333,107.25267,15.650267)"
         clip-path="url(#clipPath55)" />
      <path
         id="path56"
         d="m 0,0 c -0.586,-0.567 -0.877,-1.337 -0.877,-2.31 0,-0.961 0.291,-1.731 0.877,-2.309 0.586,-0.579 1.319,-0.869 2.202,-0.869 0.866,0 1.601,0.297 2.198,0.889 0.6,0.592 0.9,1.355 0.9,2.289 0,0.921 -0.3,1.678 -0.9,2.271 C 3.803,0.552 3.068,0.847 2.202,0.847 1.319,0.847 0.586,0.565 0,0 M 7.47,6.61 V -7.185 H 5.555 l -0.116,1.54 C 4.728,-6.803 3.602,-7.383 2.064,-7.383 c -1.449,0 -2.64,0.454 -3.573,1.363 -0.934,0.908 -1.402,2.144 -1.402,3.71 0,1.606 0.458,2.851 1.373,3.74 0.914,0.888 2.101,1.332 3.561,1.332 0.645,0 1.3,-0.154 1.964,-0.464 C 4.652,1.989 5.135,1.565 5.439,1.025 V 6.61 Z"
         style="fill:#231f20;fill-opacity:1;fill-rule:nonzero;stroke:none"
         transform="matrix(1.3333333,0,0,-1.3333333,122.25467,13.833333)"
         clip-path="url(#clipPath57)" />
      <path
         id="path58"
         d="m 0,0 c -0.546,-0.618 -0.818,-1.374 -0.818,-2.271 0,-0.893 0.269,-1.643 0.808,-2.249 0.538,-0.604 1.262,-0.908 2.171,-0.908 0.907,0 1.634,0.304 2.179,0.908 0.549,0.606 0.821,1.356 0.821,2.249 0,0.883 -0.282,1.636 -0.849,2.261 C 3.747,0.615 3.029,0.928 2.161,0.928 1.266,0.928 0.545,0.618 0,0 m 5.803,1.353 c 0.94,-0.968 1.409,-2.175 1.409,-3.624 0,-1.458 -0.462,-2.666 -1.39,-3.62 -0.928,-0.954 -2.148,-1.432 -3.661,-1.432 -1.499,0 -2.71,0.478 -3.63,1.432 -0.922,0.954 -1.381,2.162 -1.381,3.62 0,1.463 0.462,2.671 1.391,3.634 0.927,0.96 2.133,1.438 3.62,1.438 1.486,0 2.701,-0.482 3.642,-1.448"
         style="fill:#231f20;fill-opacity:1;fill-rule:nonzero;stroke:none"
         transform="matrix(1.3333333,0,0,-1.3333333,138.87813,13.913333)"
         clip-path="url(#clipPath59)" />
      <path
         id="path60"
         d="M 0,0 V 5.21 C 0,6.065 -0.232,6.744 -0.69,7.253 -1.151,7.76 -1.795,8.012 -2.626,8.012 -3.412,8.012 -4.064,7.73 -4.579,7.164 -5.092,6.598 -5.347,5.908 -5.347,5.092 V 0 H -7.38 v 9.749 h 1.855 l 0.119,-1.42 c 0.92,1.038 2.012,1.557 3.275,1.557 1.224,0 2.227,-0.414 3.011,-1.243 C 1.661,7.815 2.053,6.676 2.053,5.23 V 0 Z"
         style="fill:#231f20;fill-opacity:1;fill-rule:nonzero;stroke:none"
         transform="matrix(1.3333333,0,0,-1.3333333,167.748,23.4124)"
         clip-path="url(#clipPath61)" />
      <path
         id="path62"
         d="m 0,0 c -0.546,-0.618 -0.817,-1.374 -0.817,-2.271 0,-0.893 0.268,-1.643 0.807,-2.249 0.538,-0.604 1.263,-0.908 2.171,-0.908 0.907,0 1.634,0.304 2.18,0.908 0.549,0.606 0.82,1.356 0.82,2.249 0,0.883 -0.282,1.636 -0.849,2.261 C 3.746,0.615 3.029,0.928 2.161,0.928 1.266,0.928 0.545,0.618 0,0 m 5.803,1.353 c 0.94,-0.968 1.41,-2.175 1.41,-3.624 0,-1.458 -0.463,-2.666 -1.392,-3.62 -0.926,-0.954 -2.147,-1.432 -3.66,-1.432 -1.499,0 -2.71,0.478 -3.63,1.432 -0.922,0.954 -1.381,2.162 -1.381,3.62 0,1.463 0.462,2.671 1.391,3.634 0.927,0.96 2.133,1.438 3.62,1.438 1.486,0 2.702,-0.482 3.642,-1.448"
         style="fill:#231f20;fill-opacity:1;fill-rule:nonzero;stroke:none"
         transform="matrix(1.3333333,0,0,-1.3333333,176.93787,13.913333)"
         clip-path="url(#clipPath63)" />
      <path
         id="path64"
         d="M 0,0 V -2.822 H 2.841 V -4.579 H -0.02 v -4.636 c 0,-1.067 0.468,-1.599 1.401,-1.599 0.382,0 0.795,0.111 1.245,0.336 l 0.591,-1.737 c -0.657,-0.29 -1.309,-0.434 -1.954,-0.434 -1.065,-0.027 -1.884,0.252 -2.457,0.839 -0.572,0.586 -0.859,1.45 -0.859,2.595 v 4.636 h -1.874 v 1.757 h 1.874 v 2.607 z"
         style="fill:#231f20;fill-opacity:1;fill-rule:nonzero;stroke:none"
         transform="matrix(1.3333333,0,0,-1.3333333,193.3912,6.7048)"
         clip-path="url(#clipPath65)" />
      <path
         id="path66"
         d="m 0,0 0.138,-1.283 c 0.566,0.998 1.519,1.499 2.861,1.499 0.986,0 1.79,-0.276 2.408,-0.828 L 4.479,-2.389 c -0.487,0.395 -1.06,0.592 -1.716,0.592 -0.75,0 -1.375,-0.229 -1.877,-0.691 -0.499,-0.46 -0.748,-1.119 -0.748,-1.973 v -5.27 H -1.894 V 0 Z"
         style="fill:#231f20;fill-opacity:1;fill-rule:nonzero;stroke:none"
         transform="matrix(1.3333333,0,0,-1.3333333,208.98947,10.439333)"
         clip-path="url(#clipPath67)" />
      <path
         id="path68"
         d="M 0,0 C -0.053,0.75 -0.338,1.329 -0.859,1.736 -1.378,2.144 -2.053,2.349 -2.881,2.349 -3.644,2.349 -4.299,2.144 -4.845,1.736 -5.39,1.329 -5.742,0.75 -5.901,0 Z m -5.942,-1.719 c 0.093,-0.734 0.425,-1.327 0.998,-1.774 0.572,-0.447 1.3,-0.672 2.18,-0.672 0.528,0 1.056,0.096 1.591,0.287 0.531,0.19 0.941,0.444 1.232,0.759 L 1.381,-4.4 C 0.894,-4.927 0.273,-5.335 -0.483,-5.625 -1.24,-5.914 -2.012,-6.06 -2.803,-6.06 c -1.592,0 -2.864,0.468 -3.819,1.401 -0.953,0.935 -1.43,2.186 -1.43,3.75 0,1.488 0.474,2.704 1.42,3.651 0.948,0.95 2.178,1.422 3.692,1.422 1.631,0 2.901,-0.5 3.809,-1.499 0.907,-1.001 1.27,-2.462 1.084,-4.384 z"
         style="fill:#231f20;fill-opacity:1;fill-rule:nonzero;stroke:none"
         transform="matrix(1.3333333,0,0,-1.3333333,227.61333,15.650267)"
         clip-path="url(#clipPath69)" />
      <path
         id="path70"
         d="M 0,0 V 5.349 C 0,6.096 -0.203,6.725 -0.611,7.234 -1.02,7.74 -1.572,7.991 -2.27,7.991 -2.967,7.991 -3.532,7.736 -3.967,7.223 -4.4,6.709 -4.616,6.085 -4.616,5.349 V 0 H -6.65 v 9.749 h 1.895 l 0.139,-1.303 c 0.261,0.501 0.641,0.868 1.132,1.105 0.493,0.239 1.024,0.354 1.589,0.354 1.54,0 2.56,-0.652 3.058,-1.953 0.711,1.29 1.825,1.934 3.336,1.934 1.329,0 2.349,-0.394 3.06,-1.185 C 8.268,7.914 8.625,6.808 8.625,5.386 V 0 H 6.573 V 5.386 C 6.573,6.151 6.387,6.772 6.019,7.253 5.651,7.733 5.117,7.972 4.42,7.972 3.709,7.972 3.137,7.72 2.705,7.213 2.271,6.707 2.053,6.085 2.053,5.349 V 0 Z"
         style="fill:#231f20;fill-opacity:1;fill-rule:nonzero;stroke:none"
         transform="matrix(1.3333333,0,0,-1.3333333,241.8444,23.4124)"
         clip-path="url(#clipPath71)" />
      <path
         id="path72"
         d="m 0,0 c -0.546,-0.618 -0.817,-1.374 -0.817,-2.271 0,-0.893 0.268,-1.643 0.807,-2.249 0.539,-0.604 1.263,-0.908 2.172,-0.908 0.906,0 1.633,0.304 2.179,0.908 0.549,0.606 0.82,1.356 0.82,2.249 0,0.883 -0.282,1.636 -0.849,2.261 C 3.747,0.615 3.029,0.928 2.162,0.928 1.266,0.928 0.545,0.618 0,0 m 5.803,1.353 c 0.941,-0.968 1.41,-2.175 1.41,-3.624 0,-1.458 -0.463,-2.666 -1.391,-3.62 -0.927,-0.954 -2.148,-1.432 -3.66,-1.432 -1.5,0 -2.711,0.478 -3.631,1.432 -0.921,0.954 -1.381,2.162 -1.381,3.62 0,1.463 0.463,2.671 1.391,3.634 0.927,0.96 2.133,1.438 3.621,1.438 1.485,0 2.701,-0.482 3.641,-1.448"
         style="fill:#231f20;fill-opacity:1;fill-rule:nonzero;stroke:none"
         transform="matrix(1.3333333,0,0,-1.3333333,259.8188,13.913333)"
         clip-path="url(#clipPath73)" />
      <path
         id="path74"
         d="m 0,0 -4.125,-9.79 h -2.23 L -10.5,0 h 2.25 l 1.304,-3.137 1.715,-4.519 1.54,4.123 L -2.23,0 Z"
         style="fill:#231f20;fill-opacity:1;fill-rule:nonzero;stroke:none"
         transform="matrix(1.3333333,0,0,-1.3333333,284.37827,10.413733)"
         clip-path="url(#clipPath75)" />
      <path
         id="path76"
         d="M 0,0 C -0.052,0.75 -0.338,1.329 -0.859,1.736 -1.378,2.144 -2.053,2.349 -2.88,2.349 -3.643,2.349 -4.299,2.144 -4.844,1.736 -5.389,1.329 -5.742,0.75 -5.901,0 Z m -5.942,-1.719 c 0.093,-0.734 0.426,-1.327 0.998,-1.774 0.572,-0.447 1.301,-0.672 2.18,-0.672 0.529,0 1.057,0.096 1.591,0.287 0.531,0.19 0.941,0.444 1.232,0.759 L 1.381,-4.4 c -0.486,-0.527 -1.107,-0.935 -1.864,-1.225 -0.756,-0.289 -1.53,-0.435 -2.32,-0.435 -1.592,0 -2.864,0.468 -3.819,1.401 -0.952,0.935 -1.43,2.186 -1.43,3.75 0,1.488 0.474,2.704 1.422,3.651 0.947,0.95 2.176,1.422 3.69,1.422 1.632,0 2.901,-0.5 3.809,-1.499 0.907,-1.001 1.27,-2.462 1.085,-4.384 z"
         style="fill:#231f20;fill-opacity:1;fill-rule:nonzero;stroke:none"
         transform="matrix(1.3333333,0,0,-1.3333333,296.1072,15.650267)"
         clip-path="url(#clipPath77)" />
    </g>
  </g>
</svg>
